<?xml version="1.0" encoding="utf-8"?>
<!-- Generator: Adobe Illustrator 28.0.0, SVG Export Plug-In . SVG Version: 6.00 Build 0)  -->
<svg version="1.1" id="Capa_1" xmlns="http://www.w3.org/2000/svg" xmlns:xlink="http://www.w3.org/1999/xlink" x="0px" y="0px"
	 viewBox="0 0 256 256" style="enable-background:new 0 0 256 256;" xml:space="preserve">
<style type="text/css">
	.st0{fill:#4C2882;}
</style>
<g>
	<path class="st0" d="M128.82,256.25c-0.98-1.69-1.68-2.83-2.31-3.99c-23.07-42.61-46.13-85.23-69.2-127.84
		C30.38,74.7,63.13,12.17,119.37,5.95c50.71-5.61,93.42,35.11,90.28,86.19c-0.66,10.67-3.26,20.97-8.35,30.41
		c-23.64,43.87-47.39,87.67-71.11,131.49C129.89,254.58,129.54,255.08,128.82,256.25z M128.83,121.27
		c19.76-0.01,35.81-16.04,35.7-35.66c-0.11-19.55-16.02-35.44-35.53-35.49c-19.73-0.06-35.81,15.85-35.89,35.51
		C93.03,105.26,109.08,121.28,128.83,121.27z"/>
</g>
</svg>
